<?xml version="1.0" encoding="iso-8859-1"?>
<!-- Generator: Adobe Illustrator 19.0.0, SVG Export Plug-In . SVG Version: 6.00 Build 0)  -->
<svg version="1.1" id="Layer_1" xmlns="http://www.w3.org/2000/svg" xmlns:xlink="http://www.w3.org/1999/xlink" x="0px" y="0px"
	 viewBox="0 0 512 512" style="enable-background:new 0 0 512 512;" xml:space="preserve">
<path style="fill:#FFF7EE;" d="M332.609,65.209h-68.785c0.002,0.084,0.013,0.166,0.013,0.25v50.264h68.772
	c2.117,0,3.848-1.732,3.848-3.85V69.058C336.457,66.941,334.727,65.209,332.609,65.209z"/>
<g>
	<path style="fill:#E02424;" d="M263.837,107.82v7.903h68.772c2.117,0,3.848-1.732,3.848-3.85v-4.052
		C336.457,107.82,263.837,107.82,263.837,107.82z"/>
	<rect x="263.837" y="93.278" style="fill:#E02424;" width="72.62" height="8.021"/>
	<rect x="297.796" y="78.848" style="fill:#E02424;" width="38.661" height="8.02"/>
	<path style="fill:#E02424;" d="M332.609,65.209h-34.813v8.02h38.661v-4.17C336.457,66.941,334.727,65.209,332.609,65.209z"/>
</g>
<g>
	<path style="fill:#F4E9DF;" d="M358.071,219.736v-33.789c0-2.965-2.425-5.393-5.39-5.393H159.319c-2.964,0-5.39,2.427-5.39,5.393
		v33.789H358.071z"/>
	<path style="fill:#F4E9DF;" d="M256,176.634c-4.328,0-7.837-3.509-7.837-7.837V65.459c0-4.328,3.509-7.837,7.837-7.837
		c4.329,0,7.837,3.509,7.837,7.837v103.338C263.837,173.125,260.329,176.634,256,176.634z"/>
</g>
<g>
	<rect x="14.917" y="243.796" style="fill:#FFF7EE;" width="482.158" height="165.554"/>
	<rect x="151.876" y="264.997" style="fill:#FFF7EE;" width="23.648" height="144.353"/>
	<rect x="336.478" y="264.997" style="fill:#FFF7EE;" width="23.651" height="144.353"/>
	<rect x="213.964" y="264.997" style="fill:#FFF7EE;" width="23.649" height="144.353"/>
</g>
<g>
	<rect x="151.876" y="264.997" style="fill:#F4E9DF;" width="23.648" height="144.353"/>
	<rect x="336.478" y="264.997" style="fill:#F4E9DF;" width="23.651" height="144.353"/>
	<rect x="213.964" y="264.997" style="fill:#F4E9DF;" width="23.649" height="144.353"/>
	<rect x="274.39" y="264.997" style="fill:#F4E9DF;" width="23.648" height="144.353"/>
	<path style="fill:#F4E9DF;" d="M491.691,230.894H20.307c-2.964,0-5.39,2.426-5.39,5.393v25.772H497.08v-25.772
		C497.081,233.32,494.655,230.894,491.691,230.894z"/>
</g>
<path style="opacity:0.1;enable-background:new    ;" d="M34.647,230.894h-14.34c-2.964,0-5.39,2.426-5.39,5.393v173.059h14.34
	V236.287C29.257,233.32,31.682,230.894,34.647,230.894z"/>
<g>
	<path style="fill:#E0D4CA;" d="M145.303,250.118v16.643c0,2.965,2.425,5.393,5.39,5.393h26.008c2.964,0,5.39-2.427,5.39-5.393
		v-16.643H145.303z"/>
	<path style="fill:#E0D4CA;" d="M329.91,266.76c0,2.965,2.424,5.393,5.389,5.393h26.01c2.964,0,5.388-2.427,5.388-5.393v-16.643
		H329.91V266.76z"/>
	<path style="fill:#E0D4CA;" d="M207.39,250.118v16.643c0,2.965,2.425,5.393,5.39,5.393h26.008c2.964,0,5.39-2.427,5.39-5.393
		v-16.643H207.39z"/>
	<path style="fill:#E0D4CA;" d="M267.824,250.118v16.643c0,2.965,2.425,5.393,5.389,5.393h26.008c2.964,0,5.39-2.427,5.39-5.393
		v-16.643H267.824z"/>
</g>
<rect x="145.303" y="219.732" style="fill:#FFF7EE;" width="221.393" height="34.085"/>
<path style="fill:#E0D4CA;" d="M505.756,412.759c0-2.965-2.425-5.393-5.39-5.393H11.634c-2.964,0-5.39,2.427-5.39,5.393v14.733
	c0,2.966,2.425,5.393,5.39,5.393h488.732c2.964,0,5.39-2.426,5.39-5.393V412.759z"/>
<path style="opacity:0.1;enable-background:new    ;" d="M39.12,427.493V412.76c0-2.965,2.425-5.393,5.39-5.393H11.634
	c-2.964,0-5.39,2.427-5.39,5.393v14.733c0,2.966,2.425,5.393,5.39,5.393H44.51C41.545,432.886,39.12,430.458,39.12,427.493z"/>
<path style="fill:#F4E9DF;" d="M512,434.251c0-2.966-2.425-5.393-5.39-5.393H5.39c-2.964,0-5.39,2.426-5.39,5.393v14.734
	c0,2.965,2.425,5.393,5.39,5.393H506.61c2.964,0,5.39-2.427,5.39-5.393L512,434.251L512,434.251z"/>
<path style="opacity:0.1;enable-background:new    ;" d="M32.876,448.985v-14.734c0-2.966,2.425-5.393,5.39-5.393H5.39
	c-2.964,0-5.39,2.426-5.39,5.393v14.734c0,2.965,2.425,5.393,5.39,5.393h32.876C35.301,454.378,32.876,451.951,32.876,448.985z"/>
<g>
	<path style="fill:#E0D4CA;" d="M52.262,322.859c0,1.693-1.388,3.078-3.082,3.078H38.159c-1.695,0-3.083-1.385-3.083-3.078v-27.023
		c0-1.694,1.388-3.079,3.083-3.079h11.019c1.696,0,3.082,1.386,3.082,3.079v27.023H52.262z"/>
	<path style="fill:#E0D4CA;" d="M79.757,322.859c0,1.693-1.387,3.078-3.082,3.078h-11.02c-1.696,0-3.083-1.385-3.083-3.078v-27.023
		c0-1.694,1.388-3.079,3.083-3.079h11.019c1.695,0,3.082,1.386,3.082,3.079C79.757,295.836,79.757,322.859,79.757,322.859z"/>
	<path style="fill:#E0D4CA;" d="M107.252,322.859c0,1.693-1.388,3.078-3.082,3.078H93.151c-1.695,0-3.082-1.385-3.082-3.078v-27.023
		c0-1.694,1.388-3.079,3.082-3.079h11.019c1.695,0,3.082,1.386,3.082,3.079V322.859z"/>
	<path style="fill:#E0D4CA;" d="M134.749,322.859c0,1.693-1.388,3.078-3.082,3.078h-11.019c-1.696,0-3.082-1.385-3.082-3.078
		v-27.023c0-1.694,1.387-3.079,3.082-3.079h11.019c1.695,0,3.082,1.386,3.082,3.079V322.859z"/>
	<path style="fill:#E0D4CA;" d="M52.262,375.306c0,1.694-1.388,3.079-3.082,3.079H38.159c-1.695,0-3.083-1.386-3.083-3.079v-27.023
		c0-1.694,1.388-3.079,3.083-3.079h11.019c1.696,0,3.082,1.386,3.082,3.079v27.023H52.262z"/>
	<path style="fill:#E0D4CA;" d="M79.757,375.306c0,1.694-1.387,3.079-3.082,3.079h-11.02c-1.696,0-3.083-1.386-3.083-3.079v-27.023
		c0-1.694,1.388-3.079,3.083-3.079h11.019c1.695,0,3.082,1.386,3.082,3.079C79.757,348.283,79.757,375.306,79.757,375.306z"/>
	<path style="fill:#E0D4CA;" d="M107.252,375.306c0,1.694-1.388,3.079-3.082,3.079H93.151c-1.695,0-3.082-1.386-3.082-3.079v-27.023
		c0-1.694,1.388-3.079,3.082-3.079h11.019c1.695,0,3.082,1.386,3.082,3.079V375.306z"/>
	<path style="fill:#E0D4CA;" d="M134.749,375.306c0,1.694-1.388,3.079-3.082,3.079h-11.019c-1.696,0-3.082-1.386-3.082-3.079
		v-27.023c0-1.694,1.387-3.079,3.082-3.079h11.019c1.695,0,3.082,1.386,3.082,3.079V375.306z"/>
	<path style="fill:#E0D4CA;" d="M396.492,322.859c0,1.693-1.387,3.078-3.083,3.078H382.39c-1.698,0-3.083-1.385-3.083-3.078v-27.023
		c0-1.694,1.386-3.079,3.083-3.079h11.018c1.697,0,3.083,1.386,3.083,3.079V322.859z"/>
	<path style="fill:#E0D4CA;" d="M423.988,322.859c0,1.693-1.388,3.078-3.083,3.078h-11.018c-1.696,0-3.083-1.385-3.083-3.078
		v-27.023c0-1.694,1.388-3.079,3.083-3.079h11.018c1.696,0,3.083,1.386,3.083,3.079V322.859z"/>
	<path style="fill:#E0D4CA;" d="M451.484,322.859c0,1.693-1.389,3.078-3.083,3.078h-11.018c-1.697,0-3.082-1.385-3.082-3.078
		v-27.023c0-1.694,1.386-3.079,3.082-3.079H448.4c1.695,0,3.083,1.386,3.083,3.079V322.859z"/>
	<path style="fill:#E0D4CA;" d="M478.978,322.859c0,1.693-1.387,3.078-3.081,3.078h-11.022c-1.695,0-3.081-1.385-3.081-3.078
		v-27.023c0-1.694,1.387-3.079,3.081-3.079h11.022c1.695,0,3.081,1.386,3.081,3.079V322.859z"/>
	<path style="fill:#E0D4CA;" d="M396.492,375.306c0,1.694-1.387,3.079-3.083,3.079H382.39c-1.698,0-3.083-1.386-3.083-3.079v-27.023
		c0-1.694,1.386-3.079,3.083-3.079h11.018c1.697,0,3.083,1.386,3.083,3.079V375.306z"/>
	<path style="fill:#E0D4CA;" d="M423.988,375.306c0,1.694-1.388,3.079-3.083,3.079h-11.018c-1.696,0-3.083-1.386-3.083-3.079
		v-27.023c0-1.694,1.388-3.079,3.083-3.079h11.018c1.696,0,3.083,1.386,3.083,3.079V375.306z"/>
	<path style="fill:#E0D4CA;" d="M451.484,375.306c0,1.694-1.389,3.079-3.083,3.079h-11.018c-1.697,0-3.082-1.386-3.082-3.079
		v-27.023c0-1.694,1.386-3.079,3.082-3.079H448.4c1.695,0,3.083,1.386,3.083,3.079V375.306z"/>
	<path style="fill:#E0D4CA;" d="M478.978,375.306c0,1.694-1.387,3.079-3.081,3.079h-11.022c-1.695,0-3.081-1.386-3.081-3.079
		v-27.023c0-1.694,1.387-3.079,3.081-3.079h11.022c1.695,0,3.081,1.386,3.081,3.079V375.306z"/>
</g>
<path style="fill:#0853A4;" d="M263.824,65.209c0.002,0.084,0.013,0.166,0.013,0.25v28.622h37.394V65.209H263.824z"/>
<g>
	<rect x="145.303" y="230.891" style="fill:#E0D4CA;" width="221.393" height="7.314"/>
	<path style="fill:#E0D4CA;" d="M142.144,224.392c-2.305,0-4.322-1.551-4.913-3.778s0.39-4.574,2.391-5.719l113.856-65.091
		c0.782-0.447,1.652-0.671,2.523-0.671c0.87,0,1.742,0.224,2.522,0.671l113.857,65.091c2,1.144,2.981,3.491,2.39,5.719
		c-0.591,2.227-2.608,3.778-4.912,3.778L142.144,224.392L142.144,224.392z"/>
</g>
<path style="fill:#F4E9DF;" d="M218.008,200.298c-2.964,0-3.258-1.159-0.654-2.574l33.91-18.43c2.605-1.416,6.867-1.416,9.471,0
	l33.909,18.43c2.605,1.416,2.311,2.574-0.653,2.574H218.008z"/>
<g>
</g>
<g>
</g>
<g>
</g>
<g>
</g>
<g>
</g>
<g>
</g>
<g>
</g>
<g>
</g>
<g>
</g>
<g>
</g>
<g>
</g>
<g>
</g>
<g>
</g>
<g>
</g>
<g>
</g>
</svg>
